<?xml version="1.0" encoding="UTF-8" standalone="no"?>
<!DOCTYPE svg PUBLIC "-//W3C//DTD SVG 1.1//EN"
 "http://www.w3.org/Graphics/SVG/1.1/DTD/svg11.dtd">
<!-- Generated by graphviz version 2.40.1 (20161225.0304)
 -->
<!-- Title: G Pages: 1 -->
<svg width="444pt" height="188pt"
 viewBox="0.00 0.00 443.50 188.00" xmlns="http://www.w3.org/2000/svg" xmlns:xlink="http://www.w3.org/1999/xlink">
<g id="graph0" class="graph" transform="scale(1 1) rotate(0) translate(4 184)">
<title>G</title>
<polygon fill="#ffffff" stroke="transparent" points="-4,4 -4,-184 439.5,-184 439.5,4 -4,4"/>
<!-- User -->
<g id="node1" class="node">
<title>User</title>
<polygon fill="none" stroke="#000000" points="222.5,-180 168.5,-180 168.5,-144 222.5,-144 222.5,-180"/>
<text text-anchor="middle" x="195.5" y="-158.3" font-family="Helvetica,sans-Serif" font-size="14.00" fill="#000000">User</text>
</g>
<!-- Principal -->
<g id="node2" class="node">
<title>Principal</title>
<polygon fill="none" stroke="#000000" points="273.5,-108 201.5,-108 201.5,-72 273.5,-72 273.5,-108"/>
<text text-anchor="middle" x="237.5" y="-86.3" font-family="Helvetica,sans-Serif" font-size="14.00" fill="#000000">Principal</text>
</g>
<!-- User&#45;&gt;Principal -->
<g id="edge1" class="edge">
<title>User&#45;&gt;Principal</title>
<path fill="none" stroke="#000000" d="M206.0984,-143.8314C210.7877,-135.7925 216.4028,-126.1666 221.5798,-117.2918"/>
<polygon fill="#000000" stroke="#000000" points="224.7434,-118.8146 226.7589,-108.4133 218.6969,-115.2875 224.7434,-118.8146"/>
</g>
<!-- Role -->
<g id="node3" class="node">
<title>Role</title>
<polygon fill="none" stroke="#000000" points="182.5,-108 128.5,-108 128.5,-72 182.5,-72 182.5,-108"/>
<text text-anchor="middle" x="155.5" y="-86.3" font-family="Helvetica,sans-Serif" font-size="14.00" fill="#000000">Role</text>
</g>
<!-- User&#45;&gt;Role -->
<g id="edge2" class="edge">
<title>User&#45;&gt;Role</title>
<path fill="none" stroke="#000000" d="M185.4063,-143.8314C180.9403,-135.7925 175.5925,-126.1666 170.6621,-117.2918"/>
<polygon fill="#000000" stroke="#000000" points="173.6456,-115.4551 165.7296,-108.4133 167.5265,-118.8546 173.6456,-115.4551"/>
</g>
<!-- Privilege -->
<g id="node4" class="node">
<title>Privilege</title>
<polygon fill="none" stroke="#000000" points="189.5,-36 117.5,-36 117.5,0 189.5,0 189.5,-36"/>
<text text-anchor="middle" x="153.5" y="-14.3" font-family="Helvetica,sans-Serif" font-size="14.00" fill="#000000">Privilege</text>
</g>
<!-- Principal&#45;&gt;Privilege -->
<g id="edge3" class="edge">
<title>Principal&#45;&gt;Privilege</title>
<path fill="none" stroke="#000000" d="M216.3033,-71.8314C206.0566,-63.0485 193.5997,-52.3712 182.4903,-42.8489"/>
<polygon fill="#000000" stroke="#000000" points="184.5603,-40.0134 174.69,-36.1628 180.0048,-45.3282 184.5603,-40.0134"/>
</g>
<!-- Person -->
<g id="node5" class="node">
<title>Person</title>
<polygon fill="none" stroke="#000000" points="271,-36 208,-36 208,0 271,0 271,-36"/>
<text text-anchor="middle" x="239.5" y="-14.3" font-family="Helvetica,sans-Serif" font-size="14.00" fill="#000000">Person</text>
</g>
<!-- Principal&#45;&gt;Person -->
<g id="edge4" class="edge">
<title>Principal&#45;&gt;Person</title>
<path fill="none" stroke="#000000" d="M238.0047,-71.8314C238.2186,-64.131 238.4729,-54.9743 238.7106,-46.4166"/>
<polygon fill="#000000" stroke="#000000" points="242.2094,-46.5066 238.9885,-36.4133 235.2121,-46.3122 242.2094,-46.5066"/>
</g>
<!-- AuthenticationMean -->
<g id="node6" class="node">
<title>AuthenticationMean</title>
<polygon fill="none" stroke="#000000" points="435.5,-36 289.5,-36 289.5,0 435.5,0 435.5,-36"/>
<text text-anchor="middle" x="362.5" y="-14.3" font-family="Helvetica,sans-Serif" font-size="14.00" fill="#000000">AuthenticationMean</text>
</g>
<!-- Principal&#45;&gt;AuthenticationMean -->
<g id="edge5" class="edge">
<title>Principal&#45;&gt;AuthenticationMean</title>
<path fill="none" stroke="#000000" d="M269.0428,-71.8314C285.1791,-62.5368 304.9986,-51.1208 322.2272,-41.1971"/>
<polygon fill="#000000" stroke="#000000" points="324.0489,-44.187 330.9673,-36.1628 320.555,-38.1212 324.0489,-44.187"/>
</g>
<!-- Role&#45;&gt;Privilege -->
<g id="edge8" class="edge">
<title>Role&#45;&gt;Privilege</title>
<path fill="none" stroke="#000000" d="M154.9953,-71.8314C154.7814,-64.131 154.5271,-54.9743 154.2894,-46.4166"/>
<polygon fill="#000000" stroke="#000000" points="157.7879,-46.3122 154.0115,-36.4133 150.7906,-46.5066 157.7879,-46.3122"/>
</g>
<!-- Role&#45;&gt;Person -->
<g id="edge6" class="edge">
<title>Role&#45;&gt;Person</title>
<path fill="none" stroke="#000000" d="M176.6967,-71.8314C186.9434,-63.0485 199.4003,-52.3712 210.5097,-42.8489"/>
<polygon fill="#000000" stroke="#000000" points="212.9952,-45.3282 218.31,-36.1628 208.4397,-40.0134 212.9952,-45.3282"/>
</g>
<!-- Organisation -->
<g id="node7" class="node">
<title>Organisation</title>
<polygon fill="none" stroke="#000000" points="99,-36 0,-36 0,0 99,0 99,-36"/>
<text text-anchor="middle" x="49.5" y="-14.3" font-family="Helvetica,sans-Serif" font-size="14.00" fill="#000000">Organisation</text>
</g>
<!-- Role&#45;&gt;Organisation -->
<g id="edge7" class="edge">
<title>Role&#45;&gt;Organisation</title>
<path fill="none" stroke="#000000" d="M128.7517,-71.8314C115.4447,-62.7927 99.184,-51.7476 84.8625,-42.0198"/>
<polygon fill="#000000" stroke="#000000" points="86.4785,-38.8864 76.2397,-36.1628 82.5453,-44.677 86.4785,-38.8864"/>
</g>
</g>
</svg>
